<svg xmlns="http://www.w3.org/2000/svg" xmlns:xlink="http://www.w3.org/1999/xlink" viewBox="0 0 261.76 273.85"><defs><style>.cls-1{fill:url(#Sfumatura_senza_nome_157);}.cls-2{fill:url(#Sfumatura_senza_nome_157-2);}.cls-3{fill:url(#Sfumatura_senza_nome_157-3);}.cls-4{fill:url(#Sfumatura_senza_nome_157-4);}</style><linearGradient id="Sfumatura_senza_nome_157" x1="142.88" y1="54.3" x2="261.76" y2="54.3" gradientUnits="userSpaceOnUse"><stop offset="0" stop-color="#00d2ff"/><stop offset="0.35" stop-color="#15b2f0"/><stop offset="1" stop-color="#3a7bd5"/></linearGradient><linearGradient id="Sfumatura_senza_nome_157-2" x1="0" y1="219.29" x2="118.88" y2="219.29" xlink:href="#Sfumatura_senza_nome_157"/><linearGradient id="Sfumatura_senza_nome_157-3" x1="0" y1="157.55" x2="190.32" y2="157.55" xlink:href="#Sfumatura_senza_nome_157"/><linearGradient id="Sfumatura_senza_nome_157-4" x1="71.44" y1="116.31" x2="261.76" y2="116.31" xlink:href="#Sfumatura_senza_nome_157"/></defs><g id="Livello_2" data-name="Livello 2"><g id="Livello_1-2" data-name="Livello 1"><path class="cls-1" d="M261.76,67.11V98.63a10,10,0,0,1-14.94,8.62l-32.5-18.76-24-13.85L147.86,50.12a10,10,0,0,1-5-8.62V10a10,10,0,0,1,14.94-8.62l32.5,18.77,24,13.86,42.46,24.51A10,10,0,0,1,261.76,67.11Z"/><path class="cls-2" d="M118.88,231.83v32a10,10,0,0,1-14.94,8.62l-32.5-18.76-24-13.85L5,215.37a10,10,0,0,1-5-8.62V174.69a10,10,0,0,1,14.94-8.62l32.5,18.77,24,13.86,42.46,24.5A10,10,0,0,1,118.88,231.83Z"/><path class="cls-3" d="M190.32,190.58V248a10,10,0,0,1-5,8.62l-6.79,3.93-20.73,12a10,10,0,0,1-14.94-8.62V218a10,10,0,0,0-5-8.63l-19-11L71.44,171l-24-13.86L5,132.61A10,10,0,0,1,0,124V67.11a10,10,0,0,1,5-8.62l7.25-4.18L32.5,42.6a10,10,0,0,1,14.94,8.62V96.6a10,10,0,0,0,5,8.62l19,11,47.44,27.39,24,13.85L185.34,182A10,10,0,0,1,190.32,190.58Z"/><path class="cls-4" d="M261.76,149.34v57.41a10,10,0,0,1-5,8.62L250,219.3l-20.73,12a10,10,0,0,1-14.94-8.62V176.73a10,10,0,0,0-5-8.62l-19-11-47.44-27.39-24-13.86L76.42,91.37a10,10,0,0,1-5-8.62V25.86a10,10,0,0,1,5-8.62l7.25-4.18L103.94,1.35A10,10,0,0,1,118.88,10V55.35a10,10,0,0,0,5,8.62l19,11,47.44,27.39,24,13.86,42.46,24.51A10,10,0,0,1,261.76,149.34Z"/></g></g></svg>