<svg width="68" height="85" xmlns="http://www.w3.org/2000/svg" xml:space="preserve" version="1.1">

 <g>
  <title>Layer 1</title>
  <g id="svg_1">
   <path id="svg_2" d="m24.3,8.3c-3.6,0 -6.6,2.6 -7.2,6.1c-0.3,0 -0.6,-0.1 -0.9,-0.1c-4.4,0 -8,3.6 -8,8c0,1.2 0.3,2.3 0.8,3.4c-4,0.6 -7,4 -7,8c0,4.1 3,7.5 6.9,8.1c-0.5,1.1 -0.8,2.2 -0.8,3.4c0,4.4 3.6,8 8,8c0,0 0,0 0,0s0,0 0,0c0,0 0,0 0,0c0.3,0 0.6,0 0.9,-0.1c0.6,3.5 3.6,6.1 7.2,6.1c4,0 7.3,-3.3 7.3,-7.3l0,-36.3c0.1,-4 -3.2,-7.3 -7.2,-7.3zm5.3,43.6c0,2.9 -2.4,5.3 -5.3,5.3c-2.7,0 -4.9,-2 -5.3,-4.6c1.4,-0.5 2.6,-1.5 3.5,-2.7c0.3,-0.4 0.2,-1.1 -0.2,-1.4s-1.1,-0.2 -1.4,0.2c-0.8,1.1 -2,1.9 -3.4,2.3c-0.1,0 -0.2,0 -0.3,0.1c-0.1,0 -0.3,0.1 -0.4,0.1c-0.2,0 -0.5,0 -0.7,0c0,0 0,0 0,0c-3.3,0 -6,-2.7 -6,-6c0,-1.4 0.4,-2.6 1.3,-3.7c0,0 0,0 0,0c1.1,-1.5 2.9,-2.3 4.7,-2.3c0.6,0 1,-0.4 1,-1s-0.4,-1 -1,-1c-2.3,0 -4.4,1 -5.9,2.7c0,0 0,0 0,0c-3.4,0 -6.1,-2.8 -6.1,-6.2c0,-3.4 2.8,-6.1 6.1,-6.1c0,0 0,0 0,0c0.8,0 1.6,0.2 2.4,0.5c0.1,0.1 0.3,0.1 0.4,0.1c0.4,0 0.8,-0.2 0.9,-0.6c0.2,-0.5 0,-1.1 -0.5,-1.3c-0.7,-0.3 -1.4,-0.5 -2.1,-0.6c-0.7,-1 -1.1,-2.1 -1.1,-3.4c0,-3.3 2.7,-6 6,-6c0.3,0 0.6,0 0.9,0.1c0.4,3.7 3.5,6.5 7.3,6.5c0.6,0 1,-0.4 1,-1s-0.4,-1 -1,-1c-2.9,0 -5.3,-2.4 -5.3,-5.3c0,0 0,0 0,0c0,0 0,0 0,0c0,-2.9 2.4,-5.3 5.3,-5.3c2.9,0 5.3,2.4 5.3,5.3l0,36.3l-0.1,0z"/>
   <path id="svg_3" d="m21.3,31c0.1,0.4 0.5,0.7 1,0.7c0.1,0 0.2,0 0.3,0c0.5,-0.2 0.8,-0.7 0.7,-1.3c-0.3,-0.9 -0.8,-1.7 -1.6,-2.4c0.5,-0.5 1,-1.1 1.4,-1.7c0.3,-0.5 0.1,-1.1 -0.4,-1.4c-0.5,-0.3 -1.1,-0.1 -1.4,0.4c-1.1,1.8 -3,3 -5.2,3c-0.6,0 -1,0.4 -1,1s0.4,1 1,1c1.4,0 2.7,-0.4 3.9,-1c0.6,0.4 1.1,1 1.3,1.7z"/>
   <path id="svg_4" d="m25.4,42.5c-0.9,-0.5 -1.8,-0.8 -2.9,-0.9c0.1,-1.2 0.5,-2.3 1.3,-3.2c0.4,-0.4 0.3,-1 -0.1,-1.4c-0.4,-0.4 -1,-0.3 -1.4,0.1c-1.1,1.3 -1.7,2.9 -1.8,4.6c-1.2,0.2 -2.2,0.7 -3.2,1.4c-0.4,0.3 -0.5,1 -0.2,1.4c0.2,0.3 0.5,0.4 0.8,0.4c0.2,0 0.4,-0.1 0.6,-0.2c1.7,-1.3 4,-1.4 5.8,-0.3c0.5,0.3 1.1,0.1 1.4,-0.4c0.3,-0.6 0.2,-1.2 -0.3,-1.5z"/>
   <path id="svg_5" d="m64,34.9l0,-3.8c0,-0.3 -0.1,-0.6 -0.4,-0.8l-6.2,-5l0.1,-3.3c1.2,-0.4 2.1,-1.5 2.1,-2.8c0,-1.7 -1.3,-3 -3,-3c-1.6,0 -3,1.3 -3,3c0,1.3 0.8,2.3 1.9,2.8l-0.1,3.5l-1.5,2c-0.3,-0.1 -0.6,-0.1 -0.9,-0.1c-1.7,0 -3,1.3 -3,3s1.3,3 3,3s3,-1.3 3,-3c0,-0.6 -0.2,-1.2 -0.5,-1.7l1,-1.4l5.4,4.3l0,3.3c-1.2,0.4 -2,1.5 -2,2.8c0,0.2 0,0.3 0,0.4l-4,2.1l-5.6,-1.4c-0.2,-1.5 -1.4,-2.7 -3,-2.7c-1.7,0 -3,1.3 -3,3s1.3,3 3,3c1,0 2,-0.5 2.5,-1.3l5.6,1.4l0.3,3.5c-1,0.5 -1.7,1.5 -1.7,2.7c0,0 0,0.1 0,0.1l-5.6,2.2l-3.6,-2c0,-0.2 0,-0.3 0,-0.5c0,-1.7 -1.3,-3 -3,-3s-3,1.3 -3,3s1.3,3 3,3c0.8,0 1.4,-0.3 2,-0.8l4.1,2.2c0.2,0.1 0.3,0.1 0.5,0.1c0.1,0 0.3,0 0.4,-0.1l6.1,-2.4c0.5,0.6 1.3,1 2.2,1c1.7,0 3,-1.3 3,-3c0,-1.4 -1,-2.6 -2.3,-2.9l-0.4,-3.9l3.4,-1.8c0.5,0.5 1.2,0.8 2,0.8c1.7,0 3,-1.3 3,-3c0.2,-1 -0.6,-2.1 -1.8,-2.5zm-7.4,-16.7c0.5,0 1,0.4 1,1s-0.4,1 -1,1c-0.5,0 -1,-0.4 -1,-1s0.5,-1 1,-1zm-3.5,13.1c-0.5,0 -1,-0.4 -1,-1c0,-0.5 0.4,-1 1,-1s1,0.4 1,1c0,0.6 -0.4,1 -1,1zm-11,18c-0.5,0 -1,-0.4 -1,-1s0.4,-1 1,-1s1,0.4 1,1s-0.5,1 -1,1zm5.4,-9.1c-0.5,0 -1,-0.4 -1,-1s0.4,-1 1,-1s1,0.4 1,1s-0.4,1 -1,1zm9.7,9.2c-0.5,0 -1,-0.4 -1,-1s0.4,-1 1,-1s1,0.4 1,1s-0.4,1 -1,1zm5.8,-10.7c-0.5,0 -1,-0.4 -1,-1s0.4,-1 1,-1s1,0.4 1,1s-0.4,1 -1,1z"/>
   <path id="svg_6" d="m46.1,53.9c-1.6,0 -3,1.3 -3,3l-2.4,0.8l-3.8,-6.1l0,-25l3.2,3.2c0.2,0.2 0.4,0.3 0.7,0.3l1.2,0c0.4,1.2 1.5,2 2.8,2c1.7,0 3,-1.3 3,-3s-1.3,-3 -3,-3c-1.3,0 -2.4,0.8 -2.8,2l-0.7,0l-4.3,-4.3l0,-8.4l5.3,-4.2l3.3,0.5c0.2,1.4 1.5,2.5 2.9,2.5c0.2,0 0.4,0 0.6,-0.1l2.1,3.5l-1.1,1.2c-0.3,-0.1 -0.7,-0.2 -1.1,-0.2c-1.7,0 -3,1.3 -3,3s1.3,3 3,3s3,-1.3 3,-3c0,-0.5 -0.1,-1 -0.4,-1.4l1.6,-1.8c0.3,-0.3 0.3,-0.8 0.1,-1.2l-2.5,-4.2c0.4,-0.5 0.7,-1.2 0.7,-1.9c0,-1.7 -1.3,-3 -3,-3c-1.1,0 -2.1,0.6 -2.6,1.5l-3.8,-0.6c-0.3,0 -0.6,0 -0.8,0.2l-6,4.8c-0.2,0.2 -0.4,0.5 -0.4,0.8l0,37.1c0,0.2 0.1,0.4 0.1,0.5l4.4,7c0.2,0.3 0.5,0.5 0.9,0.5c0.1,0 0.2,0 0.3,-0.1l3.1,-1.1c0.5,0.7 1.4,1.1 2.3,1.1c1.7,0 3,-1.3 3,-3s-1.3,-2.9 -2.9,-2.9zm-1.3,-25.9c0.5,0 1,0.4 1,1s-0.4,1 -1,1c-0.5,0 -1,-0.4 -1,-1s0.4,-1 1,-1zm4.2,-5.5c-0.5,0 -1,-0.4 -1,-1s0.4,-1 1,-1s1,0.4 1,1s-0.5,1 -1,1zm-0.5,-12.4c0.5,0 1,0.4 1,1s-0.4,1 -1,1s-1,-0.4 -1,-1s0.4,-1 1,-1zm-2.4,47.8c-0.5,0 -1,-0.4 -1,-1s0.4,-1 1,-1s1,0.4 1,1s-0.5,1 -1,1z"/>
  </g>
 </g>
</svg>