<svg width="32" height="40" xmlns="http://www.w3.org/2000/svg" data-name="Layer 1">
 <title>phone smartphone rotate iphone device</title>

 <g>
  <title>Layer 1</title>
  <path id="svg_1" d="m14.5,1l-11,0a2.5,2.5 0 0 0 -2.5,2.5l0,25a2.5,2.5 0 0 0 2.5,2.5l11,0a2.5,2.5 0 0 0 2.5,-2.5l0,-25a2.5,2.5 0 0 0 -2.5,-2.5zm1.5,27.5a1.5,1.5 0 0 1 -1.5,1.5l-11,0a1.5,1.5 0 0 1 -1.5,-1.5l0,-25a1.5,1.5 0 0 1 1.5,-1.5l1.5,0l0,0.5a0.5,0.5 0 0 0 0.5,0.5l7,0a0.5,0.5 0 0 0 0.5,-0.5l0,-0.5l1.5,0a1.5,1.5 0 0 1 1.5,1.5l0,25z"/>
  <path id="svg_2" d="m28.5,15l-9.5,0a0.5,0.5 0 0 0 0,1l9.5,0a1.5,1.5 0 0 1 1.5,1.5l0,1.5l-0.5,0a0.5,0.5 0 0 0 -0.5,0.5l0,7a0.5,0.5 0 0 0 0.5,0.5l0.5,0l0,1.5a1.5,1.5 0 0 1 -1.5,1.5l-10.5,0a0.5,0.5 0 0 0 0,1l10.5,0a2.5,2.5 0 0 0 2.5,-2.5l0,-11a2.5,2.5 0 0 0 -2.5,-2.5z"/>
  <path id="svg_3" d="m20.1,6.8a0.51,0.51 0 0 0 0.4,0.2a0.49,0.49 0 0 0 0.3,-0.1a0.5,0.5 0 0 0 0.1,-0.7l-0.79,-1.06a9.45,9.45 0 0 1 7.5,6.73l-1.36,-0.8a0.5,0.5 0 1 0 -0.5,0.86l2.15,1.27a0.47,0.47 0 0 0 0.25,0.07l0.13,0a0.44,0.44 0 0 0 0.3,-0.23l1.27,-2.15a0.51,0.51 0 0 0 -0.17,-0.69a0.51,0.51 0 0 0 -0.69,0.18l-0.51,0.87a10.43,10.43 0 0 0 -8.19,-7.07l1,-0.76a0.5,0.5 0 0 0 -0.6,-0.8l-2,1.5a0.5,0.5 0 0 0 -0.1,0.7l1.51,1.98z"/>
 </g>
</svg>