<svg width="8444" height="8167.5" xmlns="http://www.w3.org/2000/svg" clip-rule="evenodd" fill-rule="evenodd" version="1.1" xml:space="preserve">
 <defs>
  <filter id="svg_5_blur">
   <feGaussianBlur stdDeviation="0.5" in="SourceGraphic"/>
  </filter>
 </defs>
 <g>
  <title>Layer 1</title>
  <g id="svg_1">
   <path id="svg_2" fill-rule="nonzero" fill="black" d="m1920,5893l1312,0l0,-615l-2821,0c-226,0 -411,-185 -411,-411l0,-4456c0,-226 185,-411 411,-411l7622,0c227,0 411,185 411,411l0,4456c0,226 -184,411 -411,411l-2821,0l0,615l1312,0c287,0 521,234 521,521l0,120l-5646,0l0,-120c0,-287 234,-521 521,-521zm6113,-837c104,0 189,-86 189,-189l0,-4456c0,-104 -85,-189 -189,-189l-7622,0c-104,0 -189,85 -189,189l0,4456c0,103 85,189 189,189l7622,0zm-4578,837l1535,0l0,-615l-1535,0l0,615zm3069,222c-1534,0 -3069,0 -4604,0c-126,0 -238,81 -280,197l5165,0c-43,-116 -154,-197 -281,-197z" class="fil0"/>
  </g>
  <text id="svg_3" font-family="'Helvetica Neue', Helvetica, Arial-Unicode, Arial, Sans-serif" font-weight="bold" font-size="5px" fill="#000000" y="6549" x="0">Created by joni</text>
  <text id="svg_4" font-family="'Helvetica Neue', Helvetica, Arial-Unicode, Arial, Sans-serif" font-weight="bold" font-size="5px" fill="#000000" y="6554" x="0">from the Noun Project</text>
  <text filter="url(#svg_5_blur)" font-weight="normal" font-style="normal" transform="matrix(8.68016 0 0 8.68016 -8991.82 -17957.7)" stroke="null" xml:space="preserve" text-anchor="start" font-family="'Work Sans'" font-size="250" stroke-width="0" id="svg_5" y="2470.3932" x="1174.91461" fill="#000000">UX/UI</text>
 </g>
</svg>